<?xml version="1.0" encoding="utf-8"?>
<!-- Generator: Adobe Illustrator 24.3.0, SVG Export Plug-In . SVG Version: 6.00 Build 0)  -->
<svg version="1.1" xmlns="http://www.w3.org/2000/svg" xmlns:xlink="http://www.w3.org/1999/xlink" x="0px" y="0px"
	 viewBox="0 0 180 180" style="enable-background:new 0 0 180 180;" xml:space="preserve">
<style type="text/css">
	.st0{fill:#FF9A34;}
	.st1{fill:#FFC9C2;}
	.st2{fill:#F86653;}
	.st3{fill:#6A94FF;}
</style>
<g id="Layer_2">
</g>
<g id="Layer_1">
	<g>
		<rect x="84.1" y="71" class="st3" width="5.8" height="73.3"/>
	</g>
	<path class="st1" d="M64.6,46.1c-2.2,8.3-7.8,44.9,24.8,41.3C107.9,60.4,72.9,48,64.6,46.1z"/>
	<path class="st2" d="M108.9,46.3c2.2,8.3,7.8,44.9-24.8,41.3C65.6,60.6,100.5,48.3,108.9,46.3z"/>
	<path class="st3" d="M85.5,116.6c0,0,18.6-17.8,23.7-9.3c6.1,10.1-23.7,14.6-23.7,14.6V116.6z"/>
	<path class="st3" d="M89.7,128.2c0,0-18.6-17.8-23.7-9.3c-6.1,10.1,23.7,14.6,23.7,14.6V128.2z"/>
	<path class="st0" d="M86.7,37.4c-0.2-0.5-0.5-0.9-1-1.2c-0.4-0.3-0.9-0.5-1.4-0.5c-0.6-0.1-1.2,0.1-1.7,0.4
		c-0.5,0.3-0.9,0.8-1.1,1.4c-0.1,0.4-0.2,0.7-0.2,1.1c0,0.5,0.2,0.9,0.3,1.3c0.3,0.7,0.8,1.3,1.2,1.9c0.4,0.4,0.8,0.9,1.2,1.3
		c0.5,0.5,1,0.9,1.5,1.3c0.3,0.3,0.7,0.5,1,0.8c0,0,0.1,0,0.1,0c0.7-0.5,1.3-1,2-1.6c0.5-0.4,1-0.9,1.5-1.4c0.6-0.6,1.1-1.3,1.4-2
		c0.2-0.5,0.4-1,0.4-1.5c0-0.5-0.1-0.9-0.3-1.4c-0.3-0.6-0.8-1.1-1.5-1.3c-0.8-0.3-1.6-0.2-2.4,0.2C87.4,36.4,87,36.8,86.7,37.4
		C86.7,37.4,86.7,37.4,86.7,37.4z"/>
</g>
<g id="Layer_4">
</g>
</svg>
