<svg width="44" height="42" viewBox="0 0 44 42" fill="none" xmlns="http://www.w3.org/2000/svg">
<path d="M25.3371 32.1898H19.4251V15.4412C19.4251 14.7674 19.2531 14.2701 18.909 13.9493C18.5962 13.5963 18.1739 13.4198 17.6421 13.4198C17.0165 13.4198 16.516 13.6124 16.1407 13.9974C15.7966 14.3824 15.6246 14.9599 15.6246 15.73V32.1898H9.71256V15.4412C9.71256 14.7674 9.52488 14.2701 9.14951 13.9493C8.80543 13.5963 8.38315 13.4198 7.88266 13.4198C7.31961 13.4198 6.85041 13.6124 6.47504 13.9974C6.09968 14.3824 5.91199 14.9599 5.91199 15.73V32.1898H0V8.31826H5.91199V10.6284H6.75656C6.94425 9.76211 7.36653 9.05623 8.02342 8.51078C8.71159 7.93324 9.60308 7.64447 10.6979 7.64447C11.7301 7.64447 12.606 7.93324 13.3254 8.51078C14.0449 9.05623 14.5297 9.76211 14.78 10.6284H15.6246C15.8748 9.76211 16.3909 9.05623 17.1729 8.51078C17.9862 7.93324 18.9872 7.64447 20.1759 7.64447C21.7399 7.64447 22.9911 8.18992 23.9295 9.28083C24.8679 10.3396 25.3371 11.8156 25.3371 13.7086V32.1898Z" fill="#FFF7F6"/>
<path d="M36.029 0.719648C35.2898 0.361932 34.2405 0.481171 33.7635 1.07736H33.7397C33.2627 0.481171 32.2134 0.361932 31.4741 0.719648C30.3056 1.26815 30.5202 2.7467 30.6872 3.41444C30.9495 4.43989 31.6649 5.17917 32.3327 5.65613C32.6427 5.87076 33.1912 6.15693 33.7397 6.15693C34.2882 6.15693 34.8367 5.87076 35.1467 5.65613C35.8144 5.20302 36.5298 4.46374 36.7922 3.41444C36.983 2.77055 37.1737 1.26815 36.029 0.719648Z" fill="#FFF7F6"/>
<path d="M43.7556 14.9567H36.7205V8.35089H31.1163V14.9567H26.9668V20.6563H31.1163V34.8457C31.1163 35.7996 30.687 36.2766 29.8285 36.2766H27.3167V42H33.0241C34.0973 42 34.9796 41.69 35.6712 41.0461C36.3628 40.4022 36.6967 39.5914 36.6967 38.566V37.8982H36.7205V20.6563H43.7556V14.9567Z" fill="#FFF7F6"/>
</svg>
