<svg width="44" height="42" viewBox="0 0 44 42" fill="none" xmlns="http://www.w3.org/2000/svg">
<path d="M25.3371 31.6714H19.4251V14.9228C19.4251 14.249 19.2531 13.7517 18.909 13.4308C18.5962 13.0779 18.1739 12.9014 17.6421 12.9014C17.0165 12.9014 16.516 13.0939 16.1407 13.4789C15.7966 13.864 15.6246 14.4415 15.6246 15.2116V31.6714H9.71256V14.9228C9.71256 14.249 9.52488 13.7517 9.14951 13.4308C8.80543 13.0779 8.38315 12.9014 7.88266 12.9014C7.31961 12.9014 6.85041 13.0939 6.47504 13.4789C6.09968 13.864 5.91199 14.4415 5.91199 15.2116V31.6714H0V7.79983H5.91199V10.11H6.75656C6.94425 9.24368 7.36653 8.5378 8.02342 7.99234C8.71159 7.41481 9.60308 7.12604 10.6979 7.12604C11.7301 7.12604 12.606 7.41481 13.3254 7.99234C14.0449 8.5378 14.5297 9.24368 14.78 10.11H15.6246C15.8748 9.24368 16.3909 8.5378 17.1729 7.99234C17.9862 7.41481 18.9872 7.12604 20.1759 7.12604C21.7399 7.12604 22.9911 7.67149 23.9295 8.76239C24.8679 9.82121 25.3371 11.2971 25.3371 13.1902V31.6714Z" fill="#F86653"/>
<path d="M36.029 0.201215C35.2898 -0.156501 34.2405 -0.0372621 33.7635 0.558931H33.7397C33.2627 -0.0372621 32.2134 -0.156501 31.4741 0.201215C30.3056 0.749713 30.5202 2.22827 30.6872 2.89601C30.9495 3.92146 31.6649 4.66074 32.3327 5.13769C32.6427 5.35232 33.1912 5.63849 33.7397 5.63849C34.2882 5.63849 34.8367 5.35232 35.1467 5.13769C35.8144 4.68459 36.5298 3.94531 36.7922 2.89601C36.983 2.25212 37.1737 0.749713 36.029 0.201215Z" fill="#F86653"/>
<path d="M43.7556 14.4383H36.7205V7.83246H31.1163V14.4383H26.9668V20.1379H31.1163V34.3273C31.1163 35.2812 30.687 35.7581 29.8285 35.7581H27.3167V41.4816H33.0241C34.0973 41.4816 34.9796 41.1716 35.6712 40.5277C36.3628 39.8838 36.6967 39.073 36.6967 38.0475V37.3798H36.7205V20.1379H43.7556V14.4383Z" fill="#F86653"/>
</svg>
