<?xml version="1.0" encoding="utf-8"?>
<!-- Generator: Adobe Illustrator 24.3.0, SVG Export Plug-In . SVG Version: 6.00 Build 0)  -->
<svg version="1.1" xmlns="http://www.w3.org/2000/svg" xmlns:xlink="http://www.w3.org/1999/xlink" x="0px" y="0px"
	 viewBox="0 0 100 100" style="enable-background:new 0 0 100 100;" xml:space="preserve">
<style type="text/css">
	.st0{fill:#6A94FF;}
</style>
<g id="Layer_2">
</g>
<g id="Layer_1">
	<g>
		<path class="st0" d="M38.5,66.3c-1.4,3.3-3.4,5.7-6,7.1c-2.6,1.4-5.5,2.1-8.9,2.1c-3.2,0-6.2-0.6-9-1.8c-2.8-1.2-5.3-3-7.4-5.3
			c-2.1-2.3-3.8-5.2-5.1-8.5c-1.2-3.3-1.9-7.1-1.9-11.4v-1.7c0-4.2,0.6-7.9,1.8-11.3S4.9,29.3,7,27c2.1-2.3,4.5-4.1,7.2-5.4
			c2.7-1.2,5.7-1.9,8.8-1.9c3.8,0,6.8,0.6,9.1,1.9c2.3,1.3,4.1,3.3,5.5,6h1.9v-6.4h13.4v38.3c0,2.1,1,3.2,2.9,3.2l6.5,0v12.8
			l-13.6,0c-2.4,0-4.4-0.7-5.9-2.1s-2.3-3.3-2.3-5.5v-1.5L38.5,66.3z M26.6,62.7c3.9,0,7-1.3,9.4-3.9c2.3-2.6,3.5-6.1,3.5-10.6V47
			c0-4.5-1.2-8-3.5-10.6c-2.3-2.6-5.5-3.9-9.4-3.9c-3.9,0-7,1.3-9.4,3.9c-2.3,2.6-3.5,6.1-3.5,10.6v1.3c0,4.5,1.2,8,3.5,10.6
			C19.6,61.4,22.7,62.7,26.6,62.7z"/>
		<path class="st0" d="M82.4,4.2c-1.7-0.8-4-0.5-5.1,0.8h-0.1c-1.1-1.3-3.4-1.6-5.1-0.8c-2.6,1.2-2.1,4.5-1.8,6c0.6,2.3,2.2,4,3.7,5
			c0.7,0.5,1.9,1.1,3.2,1.1c1.2,0,2.5-0.6,3.2-1.1c1.5-1,3.1-2.7,3.7-5C84.6,8.7,85,5.4,82.4,4.2z"/>
		<path class="st0" d="M99.7,35.9H84V21.2H71.5v14.8h-9.2v12.7h9.2v31.7c0,2.1-1,3.2-2.9,3.2h-2v12.8h9.2c2.4,0,4.4-0.7,5.9-2.1
			s2.3-3.3,2.3-5.5v-1.5H84V48.6h15.7V35.9z"/>
	</g>
</g>
</svg>
