<svg width="56" height="53" viewBox="0 0 56 53" fill="none" xmlns="http://www.w3.org/2000/svg">
<path d="M32 40H24.5333V18.8471C24.5333 17.9961 24.316 17.368 23.8815 16.9627C23.4864 16.517 22.9531 16.2941 22.2815 16.2941C21.4914 16.2941 20.8593 16.5373 20.3852 17.0235C19.9506 17.5098 19.7333 18.2392 19.7333 19.2118V40H12.2667V18.8471C12.2667 17.9961 12.0296 17.368 11.5556 16.9627C11.121 16.517 10.5877 16.2941 9.95556 16.2941C9.24444 16.2941 8.65185 16.5373 8.17778 17.0235C7.7037 17.5098 7.46667 18.2392 7.46667 19.2118V40H0V9.85098H7.46667V12.7686H8.53333C8.77037 11.6745 9.3037 10.783 10.1333 10.0941C11.0025 9.36471 12.1284 9 13.5111 9C14.8148 9 15.921 9.36471 16.8296 10.0941C17.7383 10.783 18.3506 11.6745 18.6667 12.7686H19.7333C20.0494 11.6745 20.7012 10.783 21.6889 10.0941C22.7161 9.36471 23.9802 9 25.4815 9C27.4568 9 29.037 9.68889 30.2222 11.0667C31.4074 12.4039 32 14.268 32 16.6588V40Z" fill="#F86653"/>
<path d="M45.5038 0.254129C44.5701 -0.197656 43.2449 -0.0470608 42.6425 0.705913H42.6124C42.01 -0.0470608 40.6848 -0.197656 39.7511 0.254129C38.2752 0.946864 38.5463 2.81424 38.7571 3.65757C39.0885 4.95268 39.992 5.88637 40.8354 6.48875C41.2269 6.75982 41.9196 7.12125 42.6124 7.12125C43.3051 7.12125 43.9978 6.75982 44.3894 6.48875C45.2327 5.91649 46.1363 4.9828 46.4676 3.65757C46.7086 2.84436 46.9495 0.946864 45.5038 0.254129Z" fill="#F86653"/>
<path d="M55.2618 18.2351H46.3767V9.89215H39.2988V18.2351H34.0581V25.4335H39.2988V43.3543C39.2988 44.5591 38.7567 45.1614 37.6724 45.1614H34.5V52.39H41.7083C43.0637 52.39 44.1781 51.9984 45.0515 51.1852C45.925 50.372 46.3466 49.348 46.3466 48.0528V47.2095H46.3767V25.4335H55.2618V18.2351Z" fill="#F86653"/>
</svg>
