<svg width="44" height="43" viewBox="0 0 44 43" fill="none" xmlns="http://www.w3.org/2000/svg">
<path d="M25.3371 32.4306H19.4251V15.682C19.4251 15.0082 19.2531 14.5109 18.909 14.19C18.5962 13.8371 18.1739 13.6606 17.6421 13.6606C17.0165 13.6606 16.516 13.8531 16.1407 14.2382C15.7966 14.6232 15.6246 15.2007 15.6246 15.9708V32.4306H9.71256V15.682C9.71256 15.0082 9.52488 14.5109 9.14951 14.19C8.80543 13.8371 8.38315 13.6606 7.88266 13.6606C7.31961 13.6606 6.85041 13.8531 6.47504 14.2382C6.09968 14.6232 5.91199 15.2007 5.91199 15.9708V32.4306H0V8.55905H5.91199V10.8692H6.75656C6.94425 10.0029 7.36653 9.29701 8.02342 8.75156C8.71159 8.17402 9.60308 7.88525 10.6979 7.88525C11.7301 7.88525 12.606 8.17402 13.3254 8.75156C14.0449 9.29701 14.5297 10.0029 14.78 10.8692H15.6246C15.8748 10.0029 16.3909 9.29701 17.1729 8.75156C17.9862 8.17402 18.9872 7.88525 20.1759 7.88525C21.7399 7.88525 22.9911 8.43071 23.9295 9.52161C24.8679 10.5804 25.3371 12.0564 25.3371 13.9494V32.4306Z" fill="#6A94FF"/>
<path d="M36.029 0.960431C35.2898 0.602716 34.2405 0.721954 33.7635 1.31815H33.7397C33.2627 0.721954 32.2134 0.602716 31.4741 0.960431C30.3056 1.50893 30.5202 2.98749 30.6872 3.65522C30.9495 4.68068 31.6649 5.41995 32.3327 5.89691C32.6427 6.11154 33.1912 6.39771 33.7397 6.39771C34.2882 6.39771 34.8367 6.11154 35.1467 5.89691C35.8144 5.4438 36.5298 4.70452 36.7922 3.65522C36.983 3.01134 37.1737 1.50893 36.029 0.960431Z" fill="#6A94FF"/>
<path d="M43.7556 15.1975H36.7205V8.59167H31.1163V15.1975H26.9668V20.8971H31.1163V35.0865C31.1163 36.0404 30.687 36.5174 29.8285 36.5174H27.3167V42.2408H33.0241C34.0973 42.2408 34.9796 41.9308 35.6712 41.2869C36.3628 40.643 36.6967 39.8322 36.6967 38.8067V38.139H36.7205V20.8971H43.7556V15.1975Z" fill="#6A94FF"/>
</svg>
