<?xml version="1.0" encoding="utf-8"?>
<!-- Generator: Adobe Illustrator 24.3.0, SVG Export Plug-In . SVG Version: 6.00 Build 0)  -->
<svg version="1.1" xmlns="http://www.w3.org/2000/svg" xmlns:xlink="http://www.w3.org/1999/xlink" x="0px" y="0px"
	 viewBox="0 0 180 180" style="enable-background:new 0 0 180 180;" xml:space="preserve">
<style type="text/css">
	.st0{fill:#FF9A34;}
	.st1{fill:#FFC9C2;}
	.st2{fill:#F86653;}
	.st3{fill:#6A94FF;}
</style>
<g id="Layer_2">
</g>
<g id="Layer_1">
	<path class="st1" d="M57.8,98.4c0,0,8.6-6,17.4,4.2s13.4,11.5,20.3,0c6.9-11.5,17-16,17-16v48.9H57.8V98.4z"/>
	<path class="st3" d="M115.4,138.4H54.9v-66c0-17.7,13.6-32.1,30.2-32.1s30.2,14.4,30.2,32.1V138.4z M60.7,132.6h48.8V72.4
		c0-14.5-11-26.3-24.4-26.3S60.7,57.9,60.7,72.4V132.6z"/>
	<rect x="110.3" y="39.2" transform="matrix(0.21 -0.9777 0.9777 0.21 50.9849 144.5598)" class="st0" width="9.3" height="3.1"/>
	<rect x="124.7" y="53.6" transform="matrix(0.21 -0.9777 0.9777 0.21 42.8277 169.3971)" class="st0" width="3.1" height="9.3"/>
	<rect x="119.6" y="45.6" transform="matrix(0.8398 -0.5429 0.5429 0.8398 -5.6874 74.979)" class="st0" width="9.3" height="3.1"/>
</g>
<g id="Layer_4">
</g>
</svg>
