<?xml version="1.0" encoding="utf-8"?>
<!-- Generator: Adobe Illustrator 25.3.1, SVG Export Plug-In . SVG Version: 6.00 Build 0)  -->
<svg version="1.1" id="Layer_1" xmlns="http://www.w3.org/2000/svg" xmlns:xlink="http://www.w3.org/1999/xlink" x="0px" y="0px"
	 viewBox="0 0 30 30" style="enable-background:new 0 0 30 30;" xml:space="preserve">
<style type="text/css">
	.st0{fill:#FFFFFF;}
</style>
<g>
	<g>
		<path class="st0" d="M19.56,20.13c0,0.87-0.03,1.38,0.01,2.1c0.16,2.91-2.09,5.49-5.37,5.45c-2.17-0.02-4.35,0.01-6.52-0.01
			c-3.13-0.03-5.31-2.16-5.33-5.28c-0.03-4.94-0.04-9.87,0-14.81c0.02-3.06,2.19-5.22,5.25-5.24c4.94-0.04,9.87-0.04,14.81,0
			c3.08,0.03,5.2,2.16,5.27,5.23c0.05,2.36-0.02,4.71,0,7.07c0.03,3.6-2.18,5.4-5.25,5.48C21.51,20.15,20.6,20.13,19.56,20.13z
			 M11.84,18.52c2.15,0,4.19,0,6.27,0c0-2.22,0-4.37,0-6.55c-2.12,0-4.16,0-6.27,0C11.84,14.16,11.84,16.28,11.84,18.52z
			 M3.76,12.08c0,2.21,0,4.29,0,6.46c2.11,0.04,4.15,0.02,6.26,0.02c0.06-2.25,0.07-4.33,0.01-6.48
			C7.87,12.08,5.86,12.08,3.76,12.08z M18.1,3.75c-2.16,0-4.17,0-6.16,0c-0.06,1.69-0.1,5.52-0.13,6.38c2.01,0,4.24,0,6.29,0
			C18.1,7.98,18.1,5.91,18.1,3.75z M19.89,11.93c0,2.27,0,4.41,0,6.63c1.1,0,2.38,0.01,3.14-0.02c1.53-0.07,2.61-1.05,3.03-2.54
			c0.37-1.31,0.16-2.67,0.15-4.07C24.04,11.93,22.03,11.93,19.89,11.93z M10.03,10.14c0.02-2.2,0.03-4.23,0.17-6.42
			c-1.05,0-2.24-0.1-3.17,0.02C5.74,3.92,4.7,4.59,4.13,5.84c-0.38,0.84-0.27,3.04-0.28,4.3C5.79,10.14,7.94,10.14,10.03,10.14z
			 M10.15,20.19c-2.24-0.02-4.35-0.08-6.5,0.03c0,1.01-0.07,1.86,0.01,2.69c0.15,1.53,1,2.6,2.43,3.13
			c1.31,0.49,2.66,0.24,4.06,0.25C10.15,24.2,10.15,22.27,10.15,20.19z M26.14,10.12c0-1.15,0.1-2.19-0.04-3.19
			c-0.09-0.65-0.42-1.34-0.84-1.85C23.84,3.35,21.91,3.66,20,3.7c0,2.13,0,4.35,0,6.42C22.08,10.12,24.04,10.12,26.14,10.12z
			 M11.79,20.28c-0.06,2.06-0.14,4.05,0.05,6.09c1.08,0,2.03,0.07,2.98-0.02c1.43-0.12,2.48-0.89,3.06-2.21
			c0.56-1.25,0.3-2.56,0.31-3.87C15.97,20.28,13.93,20.28,11.79,20.28z"/>
	</g>
</g>
</svg>
