<?xml version="1.0" encoding="utf-8"?>
<!-- Generator: Adobe Illustrator 24.3.0, SVG Export Plug-In . SVG Version: 6.00 Build 0)  -->
<svg version="1.1" xmlns="http://www.w3.org/2000/svg" xmlns:xlink="http://www.w3.org/1999/xlink" x="0px" y="0px"
	 viewBox="0 0 180 180" style="enable-background:new 0 0 180 180;" xml:space="preserve">
<style type="text/css">
	.st0{fill:#FF9A34;}
	.st1{fill:#FFC9C2;}
	.st2{fill:#F86653;}
	.st3{fill:#6A94FF;}
</style>
<g id="Layer_2">
</g>
<g id="Layer_1">
	<path class="st0" d="M76.6,78.7l8.7-40.3c0.5-2.1,3.5-2.1,4,0l8.7,40.3l30.3,8.7c2,0.6,2,3.3,0,3.9L97.8,100l-8.7,40.3
		c-0.5,2.1-3.5,2.1-4,0L76.6,100l-30.3-8.7c-2-0.6-2-3.3,0-3.9L76.6,78.7z"/>
	<path class="st1" d="M115.7,62.5l1.8-8.6c0.1-0.5,0.7-0.5,0.8,0l1.8,8.6l6.5,1.9c0.4,0.1,0.4,0.7,0,0.8l-6.5,1.9l-1.8,8.6
		c-0.1,0.5-0.7,0.5-0.8,0l-1.8-8.6l-6.5-1.9c-0.4-0.1-0.4-0.7,0-0.8L115.7,62.5z"/>
	<polygon class="st2" points="120,123.5 114.4,129.4 108.9,123.5 114.4,117.6 	"/>
	<g>
		<rect x="58.1" y="44.4" class="st3" width="1.7" height="5.3"/>
		<rect x="58.1" y="61.1" class="st3" width="1.7" height="5.3"/>
		
			<rect x="52.1" y="46.8" transform="matrix(0.7076 -0.7066 0.7066 0.7076 -19.4517 51.9242)" class="st3" width="1.8" height="5.3"/>
		<rect x="64" y="58.7" transform="matrix(0.7071 -0.7071 0.7071 0.7071 -24.3593 63.8357)" class="st3" width="1.8" height="5.3"/>
		<rect x="47.9" y="54.5" class="st3" width="5.3" height="1.7"/>
		<rect x="64.7" y="54.5" class="st3" width="5.3" height="1.7"/>
		
			<rect x="50.4" y="60.4" transform="matrix(0.7071 -0.7071 0.7071 0.7071 -27.8322 55.4513)" class="st3" width="5.3" height="1.8"/>
		
			<rect x="62.2" y="48.6" transform="matrix(0.7071 -0.7071 0.7071 0.7071 -15.9769 60.3636)" class="st3" width="5.3" height="1.8"/>
	</g>
	<circle class="st1" cx="44.4" cy="73.4" r="2.4"/>
</g>
<g id="Layer_4">
</g>
</svg>
