<svg id="Layer_1" data-name="Layer 1" xmlns="http://www.w3.org/2000/svg" viewBox="0 0 332 169"><defs><style>.cls-1{fill:#f7734f;}</style></defs><title>redlogo</title><path class="cls-1" d="M153.37,79.07H98.62a.28.28,0,0,0-.28.28l3,15.21a.28.28,0,0,0,.28.28h15a.28.28,0,0,1,.28.28v22.23a.28.28,0,0,0,.28.28h20.56a.28.28,0,0,0,.28-.28V95.12a.28.28,0,0,1,.28-.28h12.07a.28.28,0,0,0,.28-.28l3-15.21A.28.28,0,0,0,153.37,79.07Z"/><path class="cls-1" d="M298.81,85.38a.17.17,0,0,0-.17-.17H285.35a.14.14,0,0,0-.13.11l-.52,2.47c-.6-.26-.9-.41-1.21-.53-9-3.54-17.58,1.22-21.37,7.57-2.31,3.86-2.9,9.27-1.8,14.39,1.48,6.88,7.12,10.25,14.7,10.28a39.39,39.39,0,0,0,4.55-.21s.82,2.27.07,3.47c-1.56,2.54-8.23,2.65-12.33,2.51-4.31-.16-10.19-2.24-10.73-2.92a.31.31,0,0,0-.25-.12l-13.89-.1a.12.12,0,0,0-.12.1c-.12.61.32,3.64,6.25,10.36,3.47,3.93,12.13,8,15.45,8.88A39.49,39.49,0,0,0,276.3,143a25.28,25.28,0,0,0,14.75-5c3.19-2.39,4.94-5.23,5.7-10,0-.27.07-.54.1-.81h0c.51-2.29,1.06-9.81,1.16-10.93h0c.45-7.37.53-13.67.77-20.5C298.91,92.37,298.81,89,298.81,85.38Zm-16,24.13c0,1.43-.11,1.83-1.7,1.9a2,2,0,0,1-2.32-2,2.37,2.37,0,0,1,2.28-2.15,10.21,10.21,0,0,1,1.68-.11S282.81,108.32,282.78,109.51Z"/><path class="cls-1" d="M130.66,46c-1.25-4.32-7.71-6.82-12.34-5.44a11.19,11.19,0,0,0-6.56,3.86c-2.16-3.32-7.58-5.07-11.61-3.86a11.23,11.23,0,0,0-6.65,4V40.77a.3.3,0,0,0-.31-.3L80.81,41a.2.2,0,0,0-.19.2c0,10.78.76,21.24.77,31.87a.19.19,0,0,0,.19.19H93.46a.22.22,0,0,0,.22-.22c0-1.56-.1-8.72.27-13.52.11-1.48.19-3.69,2.43-3.66,2.41,0,2,2.32,2,3.75.12,3.11-.15,10.71-.16,13.47a.18.18,0,0,0,.19.18h12.6a.19.19,0,0,0,.19-.18c.07-3.19.57-9,1-14.54.15-1.31.57-2.7,2.34-2.68,2.41,0,2,2.32,2,3.75.12,3.11-.15,10.71-.16,13.47a.18.18,0,0,0,.19.18H130a.19.19,0,0,0,.19-.18C130.32,66.73,132.56,51,130.66,46Z"/><path class="cls-1" d="M162.51,55.36c-.1-2.46.1-5.16-.7-7.51a11.87,11.87,0,0,0-8.14-7.19c-5.66-1.2-17.14.12-18.59,2.8-.22.41.93,8.18,2.84,11.27a.16.16,0,0,0,.24,0c1.46-1.23,4.77-3.46,8.35-3.37,2.73.07,3.3,1.56,2.82,3.59-3.15-.71-4.3-.68-6.08-.19-2.82.76-6.15,2.82-7.43,5.37-1.67,3.3-1.82,7.54.75,10.59s7.8,2.95,10.58,2.1a40.38,40.38,0,0,0,3.7-1.63c.5.88.5.88.9,1.66,1.91,0,3.82.05,5.72,0,1.63-.06,3.26-.26,5.1-.42C162.58,66.59,162.73,61,162.51,55.36ZM149.42,66.77c-1.35,0-2.11-.46-2.15-1.78,0-1.78,1.55-2.69,4.09-2.56C151.35,65.84,152,66.77,149.42,66.77Z"/><path class="cls-1" d="M180,87.82c0-3,2-4.71,5.24-4.69,2.84,0,4.84,1.88,4.83,4.5,0,3-1.84,4.68-4.92,4.66S180,90.54,180,87.82Z"/><path class="cls-1" d="M237.4,118H225.6a.19.19,0,0,1-.19-.19c0-10.56-.75-20.95-.76-31.66a.2.2,0,0,1,.19-.2l12.3-.54a.29.29,0,0,1,.31.29v3.75a11.16,11.16,0,0,1,6.6-3.93c4.6-1.37,11,1.11,12.26,5.4,1.89,4.91-.33,20.56-.47,26.89a.18.18,0,0,1-.19.18H242.36a.18.18,0,0,1-.19-.18c0-2.74.28-10.28.16-13.38-.06-1.41.36-3.69-2-3.72-2.22,0-2.3,2.16-2.41,3.63-.36,4.77-.28,11.88-.27,13.43A.22.22,0,0,1,237.4,118Z"/><path class="cls-1" d="M178.13,73.2h-11.8a.19.19,0,0,1-.19-.19c0-10.56-.75-20.95-.76-31.66a.2.2,0,0,1,.19-.2l12.3-.54a.29.29,0,0,1,.31.29v3.75a11.16,11.16,0,0,1,6.6-3.93c4.6-1.37,11,1.11,12.26,5.4,1.89,4.91-.33,20.56-.47,26.89a.18.18,0,0,1-.19.18H183.09a.18.18,0,0,1-.19-.18c0-2.74.28-10.28.16-13.38-.06-1.41.36-3.69-2-3.72-2.22,0-2.3,2.16-2.41,3.63-.36,4.77-.28,11.88-.27,13.43A.22.22,0,0,1,178.13,73.2Z"/><path class="cls-1" d="M237,122.25H225.55a.11.11,0,0,0-.08,0,1.86,1.86,0,0,1-1.33.65c-2.31-.2-2-2.32-2.18-4.19-.27-2.26-.81-18.1-.92-21.53,0-.08,0-.16,0-.24v-.42h0a14.22,14.22,0,0,0-.62-4,11.87,11.87,0,0,0-8.14-7.19c-5.66-1.2-17.14.12-18.59,2.8-.22.41.93,8.18,2.84,11.27a.16.16,0,0,0,.24,0c1.46-1.23,4.77-3.46,8.35-3.37,2.73.07,3.3,1.56,2.82,3.59-3.15-.71-4.3-.68-6.08-.19-2.82.76-6.15,2.82-7.43,5.37-1.67,3.3-1.82,7.54.75,10.59s7.8,2.95,10.58,2.1a40.43,40.43,0,0,0,3.7-1.63h0c.43,14.93,7.68,16.76,12.48,16.7,13.38-.16,15.06-8.89,15.21-10.21A.11.11,0,0,0,237,122.25Zm-30.48-10.81c-1.35,0-2.11-.46-2.15-1.78,0-1.78,1.55-2.69,4.09-2.56C208.47,110.52,209.13,111.45,206.54,111.45Z"/><path class="cls-1" d="M263.25,55.36c-.1-2.46.1-5.16-.7-7.51a11.87,11.87,0,0,0-8.14-7.19c-5.66-1.2-17.14.12-18.59,2.8-.22.41.93,8.18,2.84,11.27a.16.16,0,0,0,.24,0c1.46-1.23,4.77-3.46,8.35-3.37,2.73.07,3.3,1.56,2.82,3.59-3.15-.71-4.3-.68-6.08-.19-2.82.76-6.15,2.82-7.43,5.37-1.67,3.3-1.82,7.54.75,10.59s7.8,2.95,10.58,2.1a40.38,40.38,0,0,0,3.7-1.63c.5.88.5.88.9,1.66,1.91,0,3.82.05,5.72,0,1.63-.06,3.26-.26,5.1-.42C263.32,66.59,263.47,61,263.25,55.36ZM250.16,66.77c-1.35,0-2.11-.46-2.15-1.78,0-1.78,1.55-2.69,4.09-2.56C252.09,65.84,252.75,66.77,250.16,66.77Z"/><path class="cls-1" d="M231.73,34.3H217.18V45.56c0,.38,0,.75-.06,1.13a15,15,0,0,0-7.1-.15c-2.89.76-6.7,2.75-8,5.27-2.28,3.53-2.71,12.28-1.61,15.93,1.25,4.17,5.51,5.9,11.47,5.41a21.56,21.56,0,0,0,3-.66,40.38,40.38,0,0,0,3.7-1.63c.5.88.73,1.67,1.14,2.44l12.82,0v-39ZM216.29,66.84c-1,0-1.55,0-2.1-1-1-2,1.14-6,4-5.22C218.24,61,219.29,66.84,216.29,66.84Z"/><path class="cls-1" d="M179.15,94.68a.22.22,0,0,0-.23.19c0,.64,0,1.11,0,1.57q.12,5.94.23,11.88h0v9.44a.22.22,0,0,0,.24.19h11.56a.2.2,0,0,0,.22-.18V94.86a.21.21,0,0,0-.23-.19Z"/><path class="cls-1" d="M176.53,105.86h0c-.26-3.54-1.75-6.28-6.18-8-1.81-.69-2.53-.89-4.06-1.37-1.17-.36-.52-2.29.95-2.5a8.29,8.29,0,0,1,3.9.38,9.09,9.09,0,0,1,3.77,1.76.13.13,0,0,0,.21-.08c.17-1.18.9-6.7-.14-10.15l0,0a23.37,23.37,0,0,0-15,.48c-3,1.25-6,4.25-6.3,7.57a7.83,7.83,0,0,0,4.52,8.26c1.35.71,5.76,3.1,6,4.3a1.14,1.14,0,0,1,0,.21,1.18,1.18,0,0,1-.93,1.06,4.5,4.5,0,0,1-1,.13,8.9,8.9,0,0,1-3.48-.68,12,12,0,0,1-3.64-2.35c-1.51-1.38-3.47-3.64-3.54-6.09a.12.12,0,0,0-.12-.12H141a.14.14,0,0,0-.14.13c0,1.39,0,13.4,12.6,17.9,3.36,1.42,11,1.74,14.9.41,3-1,6.53-3.2,7.46-6a17.69,17.69,0,0,0,.74-4.55C176.55,106.36,176.54,106.11,176.53,105.86Z"/><path class="cls-1" d="M93.92,79.09A.12.12,0,0,0,93.8,79H81.88a.11.11,0,0,0-.08,0,2,2,0,0,1-1,.54,2.91,2.91,0,0,1-2.19-.27,1.44,1.44,0,0,1-.46-.4,5.45,5.45,0,0,1-1-2.45C76.07,70.72,75,65,73.76,59.32s-2.61-11.47-4-17.19c-.34-1.39-.25-2.13-5-1.87-6.75.37-12,.19-18.33.18-4.4,0-5.28-.29-5.71,1.45C40,45,39.21,48.07,38.41,51.16c-2.71,10.5-6.17,23.2-9.06,34.41a.6.6,0,0,0,.59.74c3.51,0,6.82,0,10.07,0h7.3a1.14,1.14,0,0,0,1.11-.88l2.29-8.82C52,72.08,50.49,73,56,72.88c1.82,0,1.81.24,2.12,2L59,80.1a42.79,42.79,0,0,0,2.64,10.56c3.89,9.22,28,12.87,32-9.78h0A13.83,13.83,0,0,0,93.92,79.09Zm-36.76-12H53a.12.12,0,0,1-.11-.16c.44-1.68.86-3.29,1.27-4.88s1.9-1.48,2.21.17.59,3.1.91,4.67A.16.16,0,0,1,57.17,67.06Z"/></svg>